<svg width="14" height="10" viewBox="0 0 14 10" fill="none" xmlns="http://www.w3.org/2000/svg">
<path fill-rule="evenodd" clip-rule="evenodd" d="M13.9999 5C13.9999 4.86739 13.9472 4.74021 13.8535 4.64645C13.7597 4.55268 13.6325 4.5 13.4999 4.5H1.70692L4.85392 1.354C4.90041 1.30751 4.93728 1.25232 4.96244 1.19158C4.9876 1.13084 5.00055 1.06574 5.00055 0.999998C5.00055 0.934254 4.9876 0.869154 4.96244 0.808415C4.93728 0.747676 4.90041 0.692486 4.85392 0.645998C4.80743 0.59951 4.75224 0.562634 4.6915 0.537475C4.63076 0.512316 4.56566 0.499367 4.49992 0.499367C4.43417 0.499367 4.36907 0.512316 4.30833 0.537475C4.24759 0.562634 4.1924 0.59951 4.14592 0.645998L0.145917 4.646C0.099354 4.69244 0.0624111 4.74762 0.0372047 4.80836C0.0119982 4.86911 -0.000976563 4.93423 -0.000976562 5C-0.000976563 5.06577 0.0119982 5.13089 0.0372047 5.19163C0.0624111 5.25238 0.099354 5.30755 0.145917 5.354L4.14592 9.354C4.1924 9.40049 4.24759 9.43736 4.30833 9.46252C4.36907 9.48768 4.43417 9.50063 4.49992 9.50063C4.56566 9.50063 4.63076 9.48768 4.6915 9.46252C4.75224 9.43736 4.80743 9.40049 4.85392 9.354C4.90041 9.30751 4.93728 9.25232 4.96244 9.19158C4.9876 9.13084 5.00055 9.06574 5.00055 9C5.00055 8.93425 4.9876 8.86915 4.96244 8.80841C4.93728 8.74768 4.90041 8.69249 4.85392 8.646L1.70692 5.5H13.4999C13.6325 5.5 13.7597 5.44732 13.8535 5.35355C13.9472 5.25978 13.9999 5.13261 13.9999 5Z" fill="#FFFFD3"/>
</svg>
